<svg width="35" height="23" viewBox="0 0 35 23" fill="none" xmlns="http://www.w3.org/2000/svg">
<path d="M14.0311 12.0472C16.848 12.0472 19.1315 9.63847 19.1315 6.66722C19.1315 3.69597 16.848 1.28729 14.0311 1.28729C11.2142 1.28729 8.93073 3.69597 8.93073 6.66722C8.93073 9.63847 11.2142 12.0472 14.0311 12.0472Z" fill="#00E617"/>
<path d="M14.0238 1.28757C11.2221 1.28757 8.93097 3.5815 8.93097 6.81819H14.0238V1.28757Z" fill="#FFAA7C"/>
<path d="M17.7676 10.2537L14.0238 6.66725V1.28755C14.0238 1.28755 19.0468 1.21612 19.1258 7.02594C19.1258 7.02589 19.1405 8.97264 17.7676 10.2537Z" fill="#127628"/>
<path d="M5.53089 14.5577H0.770691V22.0893H5.53089V14.5577Z" fill="#FF7124"/>
<path d="M9.61096 15.6334H13.3511C14.29 15.6334 15.0511 14.8306 15.0511 13.8402H7.91091L7.23091 14.5575H6.5509V18.5026H7.23091L12.6711 19.5785L21.8514 16.3507V14.9161H15.3911" fill="#127628"/>
<path d="M13.0111 16.3507H9.61096V15.6334H13.0998C13.6884 15.6334 14.2451 15.3512 14.6129 14.8664L15.3912 13.8402C15.3911 15.2268 14.3255 16.3507 13.0111 16.3507Z" fill="#F7E6C5"/>
<path d="M5.86435 22.4409H0.437134V14.2057H5.86435V22.4409ZM1.1042 21.7372H5.19729V14.9093H1.1042V21.7372Z" fill="#127628"/>
<path d="M2.46131 20.5156H1.79425V21.2192H2.46131V20.5156Z" fill="#127628"/>
<path d="M15.1725 14.7926C15.308 14.5054 15.3847 14.1821 15.3847 13.8402V13.4883H7.77278L7.09273 14.2056H6.55084V14.9092H7.36896L8.04901 14.192H14.6764C14.5272 14.8173 13.9896 15.2816 13.351 15.2816H9.6109V15.9852H13.351C13.8408 15.9852 14.2907 15.8016 14.6421 15.4962H21.4949V16.0997L12.6315 19.32L7.28669 18.3625L7.25894 18.3576H6.55254V19.0612H7.20271L12.6876 20.0438L22.1619 16.6015V14.7925H15.1725V14.7926Z" fill="#127628"/>
<path d="M19.1278 0.0944941L19.1356 0.798004L21.8555 0.76472L21.8477 0.0612104L19.1278 0.0944941Z" fill="#127628"/>
<path d="M19.8052 1.37677H19.1381V2.0804H19.8052V1.37677Z" fill="#127628"/>
<path d="M20.828 1.37677H20.1609V2.0804H20.828V1.37677Z" fill="#00E617"/>
<path d="M25.7358 1.53468H24.9478V2.32277H25.7358V1.53468Z" fill="#127628"/>
<path d="M32.0179 6.92167V5.02763H32.9111V4.23955H31.2298V6.29952C30.2095 5.61595 28.9835 5.21662 27.6658 5.21662C24.1261 5.21662 21.2463 8.09646 21.2463 11.6362C21.2463 12.7429 21.5278 13.785 22.0229 14.6949H18.0424V15.483H22.5297C23.7018 17.044 25.5679 18.0557 27.6658 18.0557C31.2055 18.0557 34.0853 15.176 34.0853 11.6362C34.0853 9.77429 33.2883 8.0953 32.0179 6.92167ZM27.2368 6.02095V11.49H22.0363C22.1104 8.5955 24.3793 6.23721 27.2368 6.02095ZM27.6658 17.2675C26.0467 17.2675 24.5852 16.5805 23.5571 15.4829H25.2403V14.6948H22.94C22.4779 13.9832 22.1719 13.1613 22.0712 12.278H27.6571L31.4863 15.7692C30.4817 16.6986 29.1391 17.2675 27.6658 17.2675ZM32.0264 15.1953L28.0249 11.4648V6.01644C29.2365 6.09303 30.345 6.55478 31.2298 7.2798V9.80863H32.0179V8.06643C32.8169 9.03869 33.2972 10.2823 33.2972 11.6362C33.2972 12.9851 32.8203 14.2246 32.0264 15.1953Z" fill="#127628"/>
<path d="M6.5528 10.4772H5.88574V11.1808H6.5528V10.4772Z" fill="#127628"/>
<path d="M7.57563 10.4772H6.90857V11.1808H7.57563V10.4772Z" fill="#00E617"/>
<path d="M8.59846 10.4772H7.9314V11.1808H8.59846V10.4772Z" fill="#127628"/>
</svg>
