<svg width="30" height="30" viewBox="0 0 30 30" fill="none" xmlns="http://www.w3.org/2000/svg">
<path d="M15.2359 9.24503V9.24445C15.2336 9.24445 15.2317 9.24484 15.2292 9.24484V9.24445C15.2284 9.24445 15.2272 9.24445 15.2265 9.24484C15.2252 9.24445 15.2242 9.24445 15.2231 9.24445V9.24484C15.2206 9.24484 15.219 9.24445 15.2169 9.24445V9.24503C13.7332 9.28454 12.8224 10.1242 12.8375 11.5935C12.8599 13.7105 13.752 14.9949 15.2191 14.9724V14.973C15.2204 14.973 15.2215 14.973 15.2231 14.973C15.2237 14.973 15.2244 14.973 15.2258 14.973C15.2258 14.973 15.2259 14.973 15.2266 14.973H15.2273C15.2282 14.973 15.2288 14.973 15.2292 14.973C15.2308 14.973 15.232 14.973 15.2332 14.973V14.9724C16.7003 14.995 17.5926 13.7105 17.6152 11.5935C17.6302 10.1244 16.7194 9.2846 15.2359 9.24503Z" fill="#127628"/>
<path d="M7.90242 23.6063C7.70852 23.5134 7.46679 23.4608 7.24003 23.4608C6.64974 23.4608 6.28317 23.8124 6.28317 24.3768V24.8888H6.06145C5.9716 24.8888 5.89905 24.9619 5.89905 25.0519V25.3868C5.89905 25.476 5.9716 25.549 6.06145 25.549H6.28317V26.8197C6.28317 26.9098 6.35572 26.9828 6.44557 26.9828H7.08221C7.172 26.9828 7.24455 26.9098 7.24455 26.8197V25.554H7.80424C7.89364 25.554 7.96665 25.4812 7.96665 25.3918V25.0519C7.96665 24.9618 7.89371 24.8889 7.80424 24.8889H7.24455V24.5157C7.24455 24.3349 7.30697 24.2541 7.44742 24.2541L7.45717 24.2543C7.51584 24.2543 7.58433 24.2686 7.66934 24.2978C7.71162 24.3112 7.75822 24.3079 7.79759 24.2878C7.83729 24.2665 7.86666 24.2305 7.8786 24.1882L7.98924 23.7976C8.01093 23.7207 7.97433 23.6398 7.90242 23.6063Z" fill="#127628"/>
<path d="M25.3735 0.842529C23.1555 0.842529 21.3513 2.64645 21.3513 4.86425C21.3513 5.72493 21.6241 6.52248 22.0862 7.17751L20.2882 8.97543C18.9499 7.75935 17.1736 7.0175 15.2271 7.0175C13.167 7.0175 11.2978 7.84888 9.93646 9.19341L8.10433 7.67944C8.46096 7.07895 8.66661 6.37906 8.66661 5.6314C8.66661 3.41379 6.8623 1.60968 4.64444 1.60968C2.42657 1.60968 0.622009 3.41373 0.622009 5.63134C0.622009 7.84939 2.42632 9.65409 4.64425 9.65409C5.69786 9.65409 6.65769 9.24621 7.37546 8.58085L9.17589 10.0687C8.24505 11.3221 7.69368 12.873 7.69368 14.5508C7.69368 16.9269 8.79964 19.049 10.5234 20.4307L9.22844 21.9034C8.58186 21.4596 7.80018 21.1991 6.95854 21.1991C4.74062 21.1991 2.93637 23.0041 2.93637 25.2219C2.93637 27.4395 4.74068 29.2436 6.95861 29.2436C9.17654 29.2436 10.9808 27.4397 10.9808 25.2219C10.9808 24.2629 10.6429 23.3815 10.0807 22.6894L11.4879 21.089C12.5903 21.7221 13.8671 22.0841 15.2271 22.0841C19.3811 22.0841 22.7604 18.705 22.7604 14.5508C22.7604 12.7595 22.1319 11.1129 21.0841 9.81862L22.8832 8.01928C23.5688 8.56181 24.4337 8.88694 25.3736 8.88694C27.5915 8.88694 29.3958 7.08192 29.3958 4.86418C29.3958 2.64638 27.5914 0.842529 25.3735 0.842529ZM6.95848 28.1874C5.32322 28.1874 3.99251 26.8569 3.99251 25.222C3.99251 23.5862 5.32316 22.2565 6.95848 22.2565C8.5938 22.2565 9.92407 23.5864 9.92407 25.222C9.92407 26.8568 8.59374 28.1874 6.95848 28.1874ZM4.64412 8.59699C3.00886 8.59699 1.67814 7.2673 1.67814 5.63134C1.67814 3.99679 3.0088 2.66614 4.64412 2.66614C6.27944 2.66614 7.60964 3.99679 7.60964 5.63134C7.6097 7.26737 6.27944 8.59699 4.64412 8.59699ZM20.1307 18.2227C20.0256 17.4782 19.8335 16.7314 19.452 16.5797L17.0655 15.6284L16.5066 15.1577C16.359 15.0327 16.141 15.0418 16.0041 15.178L15.2272 15.9509L14.4482 15.1777C14.3113 15.0418 14.0936 15.0331 13.9459 15.1576L13.3872 15.6283L11.0007 16.5798C10.6196 16.7318 10.4276 17.4779 10.3229 18.2224C9.55434 17.1984 9.09824 15.9268 9.09824 14.5506C9.09824 11.1715 11.8476 8.422 15.227 8.422C18.6064 8.422 21.3555 11.1715 21.3555 14.5506C21.3555 15.927 20.8995 17.1986 20.1307 18.2227ZM25.3735 7.82977C23.7382 7.82977 22.4079 6.49989 22.4079 4.86425C22.4079 3.22932 23.7382 1.89873 25.3735 1.89873C27.0087 1.89873 28.3394 3.22932 28.3394 4.86425C28.3394 6.49989 27.0087 7.82977 25.3735 7.82977Z" fill="#127628"/>
<path d="M26.2936 5.89793C26.2815 5.85565 26.2523 5.81957 26.2128 5.7984C26.1733 5.77826 26.1272 5.77497 26.085 5.78839C25.9995 5.8175 25.9308 5.8319 25.8722 5.8319L25.8625 5.83209C25.7225 5.83209 25.6601 5.75128 25.6601 5.57048V4.53171H26.2194C26.3093 4.53171 26.3818 4.45871 26.3818 4.36847V4.02882C26.3818 3.93935 26.3093 3.86667 26.2194 3.86667H25.66V3.26644C25.66 3.17633 25.587 3.10423 25.4976 3.10423H24.8606C24.771 3.10423 24.6982 3.1762 24.6982 3.26644V3.87132H24.4768C24.3868 3.87132 24.314 3.94445 24.314 4.03353V4.3684C24.314 4.45864 24.3869 4.53164 24.4768 4.53164H24.6982V5.70913C24.6982 6.27366 25.0647 6.62519 25.6549 6.62519C25.8822 6.62519 26.1236 6.57278 26.3179 6.47963C26.3896 6.4462 26.426 6.36532 26.4045 6.28961L26.2936 5.89793Z" fill="#127628"/>
<path d="M5.81704 3.89128H5.26386C5.17408 3.89128 5.10159 3.96415 5.10159 4.05342V4.12914C4.93054 3.95434 4.69791 3.86288 4.42177 3.86288L4.40725 3.86301C3.76022 3.86301 3.30884 4.36583 3.30884 5.08541C3.30884 5.82119 3.76719 6.33448 4.4239 6.33448C4.6992 6.33448 4.93112 6.24314 5.10153 6.06938V6.22449C5.10153 6.52141 4.88632 6.69821 4.52595 6.69821C4.30694 6.69821 4.08348 6.63663 3.88054 6.52141C3.842 6.4994 3.79611 6.49462 3.7537 6.50689C3.71136 6.51896 3.67541 6.54942 3.65527 6.58809L3.48938 6.91218C3.45 6.98925 3.4777 7.08407 3.55231 7.12758C3.85672 7.30354 4.22342 7.40029 4.58585 7.40029C5.41917 7.40029 5.97931 6.91838 5.97931 6.20158V4.05342C5.97938 3.96415 5.90644 3.89128 5.81704 3.89128ZM4.62342 5.6748C4.3316 5.6748 4.13602 5.44707 4.13602 5.10846C4.13602 4.76687 4.33166 4.53792 4.62342 4.53792C4.9093 4.53792 5.10159 4.76687 5.10159 5.10846C5.10159 5.44707 4.90924 5.6748 4.62342 5.6748Z" fill="#127628"/>
</svg>
