<svg width="20" height="20" viewBox="0 0 20 20" fill="none" xmlns="http://www.w3.org/2000/svg">
<path d="M7.31818 7.24955H5.50909V4.5173H7.31818V2.72313H5.50909V1.81239C5.50909 0.801457 6.31818 0 7.31818 0H12.7545V6.3388L15 4.97268L17.2727 6.3388V0H18.1818C19.1364 0 20 0.874317 20 1.81239V14.5355C20 15.4736 19.1364 16.357 18.1818 16.357H7.31818C6.36364 16.357 5.50909 15.4918 5.50909 14.5355V13.6248H7.31818V11.8033H5.50909V9.07104H7.31818V7.24955ZM0 15.4463H1.81818V12.714H0V10.8925H1.81818V8.16029H0V6.3388H1.81818V3.60656H3.63636V6.3388H1.81818V8.16029H3.63636V10.8925H1.81818V12.714H3.63636V15.4463H1.81818V17.2678H3.63636V18.1785H18.1818V20H3.63636C3.15415 20 2.69169 19.8081 2.35071 19.4665C2.00974 19.1249 1.81818 18.6616 1.81818 18.1785V17.2678H0V15.4463Z" fill="#127628" fill-opacity="0.75"/>
</svg>
