<svg width="30" height="29" viewBox="0 0 30 29" fill="none" xmlns="http://www.w3.org/2000/svg">
<path d="M22.5293 12.181V19.7997C23.9829 18.5968 24.5342 17.2935 24.5342 17.2935V11.4292L24.4841 11.379L29.5466 9.32399V7.31909C29.5466 7.31909 25.1859 9.12351 22.5293 10.2262V12.181ZM15.0107 22.3058C7.49212 22.3058 5.48718 17.2935 5.48718 17.2935V11.4793L5.53729 11.379L15.0107 15.2886L22.5293 12.1809V19.7996C21.4266 20.7019 20.5243 21.153 20.5243 21.153C19.171 21.8046 17.3665 22.3058 15.0107 22.3058Z" fill="#127628"/>
<path d="M0.474792 7.26892L15.0107 1.25416L29.5467 7.26892C29.5467 7.26892 25.1859 9.07334 22.5293 10.176V12.1308L15.0107 15.2385L5.53732 11.3289L0.474792 9.27388V7.26892ZM16.2136 7.87045C16.4141 7.72008 16.5144 7.51961 16.5144 7.26898C16.5144 6.7176 15.8628 6.2665 15.0107 6.2665C14.1585 6.2665 13.507 6.7176 13.507 7.26898C13.507 7.82035 14.1585 8.27146 15.0107 8.27146C15.512 8.2714 15.9631 8.12103 16.2136 7.87045Z" fill="#127628"/>
<path d="M16.5144 7.26884C16.5144 7.46931 16.4141 7.66984 16.2136 7.87031C15.963 8.12095 15.5119 8.27131 15.0107 8.27131C14.1585 8.27131 13.507 7.82021 13.507 7.26884C13.507 6.71746 14.1585 6.26636 15.0107 6.26636C15.8628 6.26642 16.5144 6.71752 16.5144 7.26884Z" fill="#F2EDDA"/>
<path d="M22.5292 23.3083C23.0806 23.3083 23.5317 23.7594 23.5317 24.3108C23.5317 24.8621 23.0806 25.3132 22.5292 25.3132C21.9778 25.3132 21.5267 24.8621 21.5267 24.3108C21.5267 23.7594 21.9779 23.3083 22.5292 23.3083Z" fill="#FFE079"/>
<path d="M24.5343 28.5712C24.434 28.5712 24.3338 28.4709 24.2836 28.3707L23.7824 26.3658V26.3157C23.7824 26.2154 23.8827 26.1152 23.9829 26.0651C24.1333 26.015 24.2335 26.1152 24.2836 26.2655L24.7849 28.2704V28.3205C24.7849 28.4208 24.6846 28.521 24.5844 28.5712H24.5343ZM20.5243 28.5712H20.4742C20.374 28.5211 20.2738 28.4208 20.2738 28.3205V28.2704L20.775 26.2655C20.8251 26.1152 20.9254 26.0651 21.0757 26.0651C21.176 26.1152 21.2762 26.2154 21.2762 26.3157V26.3658L20.775 28.3707C20.7248 28.4709 20.6246 28.5712 20.5243 28.5712ZM22.5293 28.5712C22.3789 28.5712 22.2786 28.4709 22.2786 28.3205V26.8169C22.2786 26.6665 22.3789 26.5662 22.5293 26.5662C22.6797 26.5662 22.7799 26.6665 22.7799 26.8169V28.3205C22.7799 28.4709 22.6797 28.5712 22.5293 28.5712ZM22.5293 25.5638C21.8275 25.5638 21.2762 25.0124 21.2762 24.3108C21.2762 23.7093 21.7273 23.2081 22.2787 23.0577V19.7997V12.181V10.577L20.374 11.379L15.111 13.5342C15.0609 13.5843 14.9606 13.5843 14.9105 13.5342L0.374554 7.51954C0.274286 7.46938 0.224182 7.36917 0.224182 7.26891C0.224182 7.16864 0.274286 7.06844 0.374554 7.01827L14.9105 1.00352C14.9606 0.953417 15.0609 0.953417 15.111 1.00352L29.6469 7.01827C29.7472 7.06838 29.7973 7.16864 29.7973 7.26891C29.7973 7.36917 29.7472 7.46938 29.6469 7.51954L22.7799 10.3766V11.8301L29.296 9.1235V8.77266C29.296 8.62229 29.3963 8.52202 29.5466 8.52202C29.697 8.52202 29.7973 8.62229 29.7973 8.77266V9.27386C29.7973 9.37413 29.7472 9.47434 29.6469 9.5245L22.7799 12.3313V19.2984C23.7824 18.4463 24.1834 17.4439 24.2836 17.2434V13.7849C24.2836 13.6345 24.3839 13.5342 24.5343 13.5342C24.6846 13.5342 24.7849 13.6345 24.7849 13.7849V17.2935C24.7849 17.3436 24.7849 17.3436 24.7849 17.3937C24.7849 17.4438 24.2335 18.8974 22.78 19.95V23.1077C23.3314 23.208 23.7825 23.7092 23.7825 24.3608C23.7824 25.0124 23.231 25.5638 22.5293 25.5638ZM22.5293 23.5589C22.1283 23.5589 21.7774 23.9097 21.7774 24.3108C21.7774 24.7118 22.1283 25.0626 22.5293 25.0626C22.9303 25.0626 23.2811 24.7118 23.2811 24.3108C23.2811 23.9097 22.9303 23.5589 22.5293 23.5589ZM1.12641 7.26891L15.0107 13.033L21.8276 10.2262L16.3139 8.17112C16.0132 8.42176 15.5621 8.57212 15.0609 8.57212C14.0584 8.57212 13.3065 8.02075 13.3065 7.31907C13.3065 6.61739 14.0584 6.06602 15.0609 6.06602C16.0634 6.06602 16.8152 6.61739 16.8152 7.31907C16.8152 7.46944 16.7651 7.61981 16.715 7.77018L22.5794 9.97561L28.9953 7.31907L15.111 1.55489L1.12641 7.26891ZM15.0107 6.51706C14.3089 6.51706 13.7576 6.86791 13.7576 7.26891C13.7576 7.66991 14.309 8.02075 15.0107 8.02075C15.4117 8.02075 15.8127 7.87038 16.0132 7.66991L16.0633 7.61981C16.1636 7.51954 16.2137 7.36917 16.2137 7.2188C16.2638 6.86796 15.7125 6.51706 15.0107 6.51706ZM15.0107 22.5564C7.39186 22.5564 5.28665 17.4439 5.23655 17.3938C5.23655 17.3437 5.23655 17.3437 5.23655 17.2935V13.7849C5.23655 13.6346 5.33682 13.5343 5.48719 13.5343C5.63756 13.5343 5.73783 13.6346 5.73783 13.7849V17.2434C5.9383 17.6945 8.09367 21.955 14.7601 22.0552V17.2935C14.7601 17.1431 14.8604 17.0429 15.0108 17.0429C15.1611 17.0429 15.2614 17.1431 15.2614 17.2935V22.0552C17.7174 22.0051 19.4217 21.4036 20.4241 20.9024C20.5244 20.8523 20.6748 20.9024 20.775 21.0026C20.8753 21.1029 20.775 21.2533 20.6747 21.3535C19.5219 21.9048 17.6673 22.5564 15.0107 22.5564ZM15.0107 15.5392C14.9606 15.5392 14.9606 15.5392 14.9104 15.5392L0.374554 9.52444C0.274286 9.47434 0.224182 9.37413 0.224182 9.27386V8.77266C0.224182 8.62229 0.324449 8.52202 0.474821 8.52202C0.625193 8.52202 0.72546 8.62229 0.72546 8.77266V9.1235L15.0108 15.038L20.4241 12.7825C20.5745 12.7323 20.6748 12.7825 20.775 12.9328C20.8251 13.0832 20.775 13.1835 20.6246 13.2837L15.111 15.5893C15.0609 15.5392 15.0609 15.5392 15.0107 15.5392Z" fill="white"/>
</svg>
