<svg width="28" height="24" viewBox="0 0 28 24" fill="none" xmlns="http://www.w3.org/2000/svg">
<path d="M24.6182 4.07603H2.48688C1.3831 4.07603 0.488281 4.97085 0.488281 6.07463V20.8839C0.488281 21.9876 1.3831 22.8825 2.48688 22.8825H24.6182C25.722 22.8825 26.6168 21.9876 26.6168 20.8839V6.07463C26.6168 4.9708 25.722 4.07603 24.6182 4.07603Z" fill="white"/>
<path d="M2.68629 20.8838V6.07463C2.68629 4.97085 3.58111 4.07603 4.68489 4.07603H2.48688C1.3831 4.07603 0.488281 4.97085 0.488281 6.07463V20.8839C0.488281 21.9876 1.3831 22.8825 2.48688 22.8825H4.68489C3.58111 22.8824 2.68629 21.9875 2.68629 20.8838Z" fill="#127628"/>
<path d="M13.5527 19.5942C16.7757 19.5942 19.3884 16.9815 19.3884 13.7585C19.3884 10.5355 16.7757 7.92278 13.5527 7.92278C10.3297 7.92278 7.71698 10.5355 7.71698 13.7585C7.71698 16.9815 10.3297 19.5942 13.5527 19.5942Z" fill="#127628"/>
<path d="M16.9022 12.3627H14.9483V10.4089H12.1571V12.3627H10.2032V15.154H12.1571V17.1078H14.9483V15.154H16.9022V12.3627Z" fill="white"/>
<path d="M24.6533 3.53442H22.8396C22.5505 3.53442 22.3163 3.76876 22.3163 4.05776C22.3163 4.34676 22.5505 4.5811 22.8396 4.5811H24.6533C25.4667 4.5811 26.1286 5.24291 26.1286 6.05631V20.8655C26.1286 21.679 25.4668 22.3407 24.6533 22.3407H24.178C24.3122 21.7053 24.6866 21.1388 25.237 20.7665C25.4765 20.6047 25.5393 20.2794 25.3774 20.0399C25.2156 19.8004 24.8903 19.7376 24.6507 19.8995C23.811 20.4673 23.2609 21.3554 23.1156 22.3407H4.06095C3.83213 20.7868 2.60059 19.5551 1.04672 19.3262V6.05636C1.04672 5.24291 1.70854 4.58115 2.52194 4.58115H20.9207C21.2098 4.58115 21.4441 4.34682 21.4441 4.05781C21.4441 3.76881 21.2098 3.53448 20.9207 3.53448H19.6295V2.03973C19.6295 0.914988 18.7145 0 17.5898 0H9.58553C8.46078 0 7.5458 0.915041 7.5458 2.03973V3.53442H2.52194C1.13133 3.53442 0 4.66581 0 6.05636V20.8656C0 22.2562 1.13133 23.3875 2.52194 23.3875H24.6533C26.044 23.3875 27.1753 22.2562 27.1753 20.8656V6.05636C27.1752 4.66581 26.044 3.53442 24.6533 3.53442ZM8.59241 2.03968C8.59241 1.49209 9.03789 1.04662 9.58548 1.04662H17.5897C18.1373 1.04662 18.5828 1.49209 18.5828 2.03968V3.53437H8.59241V2.03968ZM1.04672 20.8655V20.3891C2.02233 20.5952 2.7922 21.3651 2.99819 22.3407H2.52199C1.70848 22.3408 1.04672 21.679 1.04672 20.8655Z" fill="#127628"/>
<path d="M9.09121 9.24371C7.89014 10.4448 7.2287 12.0416 7.2287 13.7401C7.2287 17.2465 10.0812 20.099 13.5876 20.099C17.0939 20.099 19.9465 17.2465 19.9465 13.7401C19.9465 10.2338 17.0938 7.38125 13.5875 7.38125C12.7294 7.38125 11.8966 7.5494 11.1122 7.88118C10.846 7.99381 10.7215 8.30085 10.8341 8.56703C10.9467 8.83327 11.2538 8.95773 11.5199 8.84515C12.1745 8.56825 12.8702 8.42792 13.5875 8.42792C16.5167 8.42792 18.8997 10.8109 18.8997 13.7401C18.8997 16.6693 16.5167 19.0523 13.5875 19.0523C10.6583 19.0523 8.27537 16.6693 8.27537 13.7401C8.27537 12.3212 8.82795 10.9872 9.83126 9.98386C10.0357 9.77946 10.0357 9.4481 9.83126 9.24376C9.62697 9.03931 9.29556 9.03931 9.09121 9.24371Z" fill="#127628"/>
<path d="M14.9832 9.86734H12.192C11.903 9.86734 11.6687 10.1017 11.6687 10.3907V11.8212H10.2382C9.94912 11.8212 9.71484 12.0555 9.71484 12.3445V15.1357C9.71484 15.4248 9.94918 15.6591 10.2382 15.6591H11.6687V17.0896C11.6687 17.3786 11.903 17.6129 12.192 17.6129H14.9832C15.2723 17.6129 15.5066 17.3786 15.5066 17.0896V15.6591H16.9371C17.2262 15.6591 17.4604 15.4248 17.4604 15.1358V12.3446C17.4604 12.0555 17.2262 11.8212 16.9371 11.8212H15.5066V10.3907C15.5066 10.1017 15.2722 9.86734 14.9832 9.86734ZM16.4137 12.8679V14.6124H14.9832C14.6941 14.6124 14.4598 14.8467 14.4598 15.1357V16.5662H12.7153V15.1358C12.7153 14.8467 12.481 14.6124 12.192 14.6124H10.7615V12.8679H12.192C12.481 12.8679 12.7153 12.6336 12.7153 12.3446V10.9141H14.4598V12.3446C14.4598 12.6336 14.6941 12.8679 14.9832 12.8679H16.4137V12.8679Z" fill="#127628"/>
</svg>
