<svg width="25" height="25" viewBox="0 0 25 25" fill="none" xmlns="http://www.w3.org/2000/svg">
<path d="M18.9895 4L18.5288 5.50645H17L18.2356 6.30272L17.7539 7.74462L18.9895 6.77618L20.2251 7.68005L19.7644 6.30272L21 5.50645H19.4712L18.9895 4Z" fill="#127628"/>
<path d="M18.9895 9.5954L18.5288 11.1019H17L18.2356 11.9412L17.7539 13.3831L18.9895 12.4361L20.2251 13.34L19.7644 11.9412L21 11.1019H19.4712L18.9895 9.5954Z" fill="#127628"/>
<path d="M18.9895 14.9756L18.5288 16.4821H17L18.2356 17.4505L17.7539 18.9785L18.9895 18.0531L20.2251 19L19.7644 17.4505L21 16.4821H19.4712L18.9895 14.9756Z" fill="#127628"/>
<path d="M1.76447 25H23.2355C24.207 25 25 24.2063 25 23.2341V1.76587C25 0.793651 24.207 0 23.2355 0H1.76447C0.79302 0 0 0.793651 0 1.76587V23.254C0 24.2063 0.79302 25 1.76447 25ZM23.2157 0.396825C23.9691 0.396825 24.5837 1.0119 24.5837 1.76587V23.254C24.5837 24.0079 23.9691 24.623 23.2157 24.623H1.74465C0.991276 24.623 0.376684 24.0079 0.376684 23.254V1.76587C0.376684 1.0119 0.991276 0.396825 1.74465 0.396825H23.2157Z" fill="#127628"/>
<path d="M4.18333 17H14.8167C14.9267 17 15 16.8 15 16.5C15 16.2 14.9267 16 14.8167 16H4.18333C4.07333 16 4 16.2 4 16.5C4 16.8 4.07333 17 4.18333 17Z" fill="#127628"/>
<path d="M4.18333 12H14.8167C14.9267 12 15 11.8 15 11.5C15 11.2 14.9267 11 14.8167 11H4.18333C4.07333 11 4 11.2 4 11.5C4 11.8 4.07333 12 4.18333 12Z" fill="#127628"/>
<path d="M4.18333 7H14.8167C14.9267 7 15 6.8 15 6.5C15 6.2 14.9267 6 14.8167 6H4.18333C4.07333 6 4 6.2 4 6.5C4 6.8 4.07333 7 4.18333 7Z" fill="#127628"/>
</svg>
