<svg width="20" height="20" viewBox="0 0 20 20" fill="none" xmlns="http://www.w3.org/2000/svg">
<path d="M15.9778 8.65556C14.3778 11.8 11.8 14.3778 8.65555 15.9778L6.21111 13.5333C5.9 13.2222 5.46667 13.1333 5.07778 13.2556C3.83333 13.6667 2.5 13.8889 1.11111 13.8889C0.816425 13.8889 0.53381 14.006 0.325436 14.2143C0.117062 14.4227 0 14.7053 0 15V18.8889C0 19.1836 0.117062 19.4662 0.325436 19.6746C0.53381 19.8829 0.816425 20 1.11111 20C6.12076 20 10.9252 18.0099 14.4676 14.4676C18.0099 10.9252 20 6.12076 20 1.11111C20 0.816426 19.8829 0.533811 19.6746 0.325437C19.4662 0.117063 19.1836 0 18.8889 0H15C14.7053 0 14.4227 0.117063 14.2143 0.325437C14.006 0.533811 13.8889 0.816426 13.8889 1.11111C13.8889 2.5 13.6667 3.83333 13.2556 5.07778C13.1333 5.46667 13.2222 5.9 13.5333 6.21111L15.9778 8.65556Z" fill="#127628" fill-opacity="0.75"/>
</svg>
