<svg width="25" height="23" viewBox="0 0 25 23" fill="none" xmlns="http://www.w3.org/2000/svg">
<path d="M12.8862 0C9.31056 0 7.09391 0.753701 4.87107 2.54761V0.95832C4.87107 0.42905 4.42252 0 3.86919 0C3.31586 0 2.86731 0.42905 2.86731 0.95832V4.79165C2.86731 5.32092 3.31586 5.74997 3.86919 5.74997H7.87675C8.43008 5.74997 8.87863 5.32092 8.87863 4.79165C8.87863 4.26238 8.43008 3.83333 7.87675 3.83333H6.38992C8.18662 2.45337 9.96143 1.91664 12.8862 1.91664C18.4194 1.91664 22.9052 6.20736 22.9052 11.5C22.9052 16.7926 18.4194 21.0833 12.8862 21.0833C12.4241 21.0833 11.9685 21.0538 11.5224 20.9954C10.9742 20.9236 10.4689 21.2904 10.3938 21.8148C10.3187 22.3392 10.7022 22.8225 11.2504 22.8943C11.787 22.9647 12.3334 23 12.8862 23C19.5261 23 24.909 17.8511 24.909 11.5C24.909 5.14882 19.5261 0 12.8862 0Z" fill="#127628"/>
<path d="M8.75337 20.2329C8.09358 19.9467 7.46839 19.5925 6.88849 19.1773C6.44552 18.8602 5.81762 18.9465 5.486 19.3703C5.15444 19.794 5.2447 20.3946 5.68771 20.7118C6.38344 21.2099 7.13373 21.6349 7.92592 21.9785C8.42988 22.197 9.02365 21.9835 9.25213 21.5014C9.48061 21.0194 9.25734 20.4514 8.75337 20.2329Z" fill="#127628"/>
<path d="M3.73094 15.3989C3.50561 14.9155 2.91325 14.6984 2.40788 14.9139C1.9025 15.1295 1.67547 15.6961 1.90081 16.1795C2.25496 16.9393 2.69459 17.6596 3.21096 18.328C3.5398 18.7537 4.16709 18.8438 4.61212 18.5293C5.05715 18.2148 5.15136 17.6148 4.82257 17.1891C4.39219 16.6318 4.02592 16.0318 3.73094 15.3989Z" fill="#127628"/>
<path d="M2.10241 13.8845C2.65062 13.8128 3.03432 13.3296 2.95936 12.8052C2.89821 12.3774 2.86741 11.9416 2.86741 11.5004C2.86741 10.9711 2.41885 10.5421 1.86553 10.5421C1.3122 10.5421 0.863647 10.9711 0.863647 11.5004C0.863647 12.0281 0.900561 12.5507 0.974059 13.0648C1.04901 13.5892 1.5542 13.9562 2.10241 13.8845Z" fill="#127628"/>
<path d="M12.8863 18.2084C16.7599 18.2084 19.8995 15.2052 19.8995 11.5C19.8995 7.79486 16.7599 4.79169 12.8863 4.79169C9.01267 4.79169 5.87305 7.79481 5.87305 11.5C5.87305 15.2052 9.01267 18.2084 12.8863 18.2084ZM12.8863 6.70833C15.6533 6.70833 17.8958 8.85335 17.8958 11.5C17.8958 14.1467 15.6533 16.2917 12.8863 16.2917C10.1193 16.2917 7.87681 14.1467 7.87681 11.5C7.87681 8.85335 10.1193 6.70833 12.8863 6.70833Z" fill="#127628"/>
<path d="M11.5909 14.0944L13.5947 12.1777C13.5949 12.1775 13.595 12.1773 13.5952 12.1772C13.6184 12.155 13.6403 12.1317 13.6611 12.1075C13.6706 12.0964 13.6789 12.0847 13.6878 12.0733C13.6985 12.0597 13.7095 12.0463 13.7194 12.0321C13.729 12.0185 13.7372 12.0043 13.746 11.9903C13.754 11.9775 13.7624 11.9649 13.7698 11.9517C13.7778 11.9374 13.7846 11.9228 13.7917 11.9082C13.7986 11.8944 13.8057 11.8808 13.8119 11.8667C13.818 11.8526 13.823 11.8381 13.8283 11.8237C13.834 11.8086 13.8401 11.7937 13.845 11.7782C13.8495 11.7638 13.8528 11.7492 13.8566 11.7347C13.8608 11.7189 13.8654 11.7033 13.8688 11.6873C13.8722 11.6705 13.8744 11.6535 13.8769 11.6365C13.879 11.6226 13.8818 11.6088 13.8832 11.5946C13.8865 11.5632 13.8882 11.5316 13.8882 11.5001V9.58338C13.8882 9.05411 13.4397 8.62506 12.8863 8.62506C12.333 8.62506 11.8844 9.05411 11.8844 9.58338V11.1031L10.1741 12.7391C9.78286 13.1133 9.78286 13.7201 10.1741 14.0944C10.5653 14.4686 11.1997 14.4686 11.5909 14.0944Z" fill="#127628"/>
</svg>
