<svg width="23" height="26" viewBox="0 0 23 26" fill="none" xmlns="http://www.w3.org/2000/svg">
<path d="M7.33068 16.0429C8.1191 16.8313 9.15492 17.2256 10.1906 17.2256C11.2263 17.2256 12.2621 16.8313 13.0506 16.0429C13.8146 15.2789 14.2353 14.2633 14.2353 13.183C14.2353 12.1027 13.8146 11.087 13.0506 10.323C11.4737 8.74612 8.90758 8.74612 7.33073 10.323C6.56674 11.0869 6.14606 12.1026 6.14606 13.1829C6.14606 14.2633 6.56669 15.279 7.33068 16.0429ZM7.88386 10.8763C9.15584 9.60447 11.2255 9.60452 12.4973 10.8763C13.1134 11.4925 13.4527 12.3116 13.4527 13.183C13.4527 14.0543 13.1134 14.8734 12.4973 15.4895C11.2253 16.7615 9.15579 16.7615 7.88386 15.4895C7.26772 14.8734 6.92843 14.0543 6.92843 13.183C6.92843 12.3116 7.26777 11.4925 7.88386 10.8763Z" fill="#127628"/>
<path d="M22.1705 21.6687L18.6532 18.1424C19.4647 16.7586 19.921 15.1981 19.9848 13.5906H21.6769C21.9252 13.5906 22.1659 13.4877 22.3375 13.3082C22.5112 13.1266 22.6007 12.8886 22.5895 12.6379C22.4515 9.54307 21.1666 6.62979 18.9715 4.43481C16.7765 2.23988 13.8632 0.954982 10.7684 0.816964C10.5178 0.806269 10.2796 0.895264 10.098 1.06895C9.91852 1.24055 9.81558 1.48141 9.81558 1.72966V3.42174C4.60057 3.62775 0.421265 7.93471 0.421265 13.1993C0.421265 18.595 4.81108 22.9847 10.2069 22.9847C11.9507 22.9847 13.6518 22.5232 15.147 21.6473L18.6646 25.1739C18.9444 25.4537 19.3118 25.5936 19.6793 25.5936C20.0468 25.5936 20.4144 25.4537 20.694 25.1739L22.1702 23.6978C22.4413 23.4267 22.5906 23.0664 22.5906 22.6831C22.5905 22.2997 22.4413 21.9393 22.1705 21.6687ZM18.0803 17.568L17.664 17.1507C17.6639 17.1506 17.6638 17.1505 17.6636 17.1504C17.3926 16.8793 17.0323 16.73 16.6489 16.73C16.3998 16.73 16.1603 16.7931 15.9488 16.9116L15.2327 16.1957C15.7048 15.4088 15.9847 14.521 16.048 13.5906H19.2016C19.1414 14.9898 18.7579 16.3492 18.0803 17.568ZM15.3575 17.4269L14.4347 18.3498L13.8554 17.7705C14.0237 17.6358 14.1863 17.4905 14.3423 17.3346C14.4976 17.1792 14.6431 17.0168 14.7786 16.8479L15.3575 17.4269ZM10.5982 1.72962C10.5982 1.68069 10.6237 1.64899 10.6389 1.63443C10.6538 1.6202 10.6858 1.59644 10.7335 1.59866C16.7774 1.86826 21.5384 6.62906 21.808 12.6727C21.81 12.7203 21.7864 12.7525 21.7721 12.7674C21.7575 12.7826 21.7258 12.8081 21.6769 12.8081H16.0502C15.9609 11.3809 15.3624 10.0516 14.3422 9.0315C13.3011 7.99041 11.963 7.42286 10.5982 7.32863V1.72962ZM10.1906 8.09674C11.4938 8.09674 12.7969 8.59277 13.789 9.58478C14.7501 10.5459 15.2794 11.8238 15.2794 13.183C15.2794 13.1842 15.2794 13.1854 15.2794 13.1866C15.2793 13.1908 15.2792 13.1951 15.2792 13.1993C15.2792 13.2028 15.2793 13.2062 15.2794 13.2097C15.2742 14.221 14.976 15.1862 14.4249 16.0084C14.4137 16.0226 14.4037 16.0374 14.3948 16.0527C14.2176 16.3111 14.0153 16.5549 13.789 16.7812C13.556 17.0142 13.3059 17.2198 13.0426 17.398C13.0397 17.4 13.0368 17.4019 13.0339 17.4039C12.178 17.9809 11.1844 18.2693 10.1905 18.2693C8.88754 18.2692 7.58412 17.7731 6.5922 16.7812C5.63106 15.8201 5.10173 14.5422 5.10173 13.183C5.10173 11.8238 5.63101 10.5459 6.5922 9.58474C7.58436 8.59272 8.8875 8.09674 10.1906 8.09674ZM10.2069 22.2022C5.24255 22.2022 1.20374 18.1635 1.20374 13.1993C1.20374 8.36624 5.03228 4.41051 9.81573 4.20479V7.32651C8.43947 7.41371 7.08847 7.98209 6.03906 9.0315C4.93008 10.1404 4.31935 11.6148 4.31935 13.183C4.31935 14.7513 4.93008 16.2256 6.03906 17.3346C7.97838 19.2738 10.9478 19.5704 13.2022 18.2238L13.9194 18.941C13.8008 19.1525 13.7378 19.3919 13.7378 19.6411C13.7378 20.0244 13.8871 20.3848 14.1578 20.6555L14.5744 21.0732C13.2426 21.8132 11.7428 22.2022 10.2069 22.2022ZM21.617 23.1444L20.1409 24.6205C19.8863 24.8751 19.4723 24.875 19.2182 24.6209L15.4893 20.8825C15.4855 20.8785 15.4816 20.8746 15.4776 20.8708L14.7113 20.1026C14.5881 19.9793 14.5202 19.8154 14.5202 19.6411C14.5202 19.4669 14.5881 19.303 14.7113 19.1797L16.1875 17.7036C16.4419 17.4492 16.856 17.4491 17.1104 17.7036L17.8765 18.4717C17.8802 18.4757 17.8841 18.4795 17.888 18.4833L21.6169 22.2217C21.7402 22.3449 21.808 22.5088 21.808 22.683C21.8081 22.8573 21.7403 23.0211 21.617 23.1444Z" fill="#127628"/>
</svg>
