<svg width="22" height="23" viewBox="0 0 22 23" fill="none" xmlns="http://www.w3.org/2000/svg">
<path d="M5.35021 12.9364C5.35021 11.7702 5.73507 10.6933 6.38258 9.82285C5.70452 9.21341 4.81099 8.83949 3.82786 8.83949C1.71386 8.83949 0 10.5536 0 12.6674C0 12.6674 0.900593 20.7102 3.82786 20.7102C4.95919 20.7102 5.78682 19.5078 6.3778 18.0338C5.6881 15.7645 5.40926 13.4993 5.35454 13.0119L5.35021 12.9364Z" fill="#127628"/>
<path d="M3.82787 8.56224C5.10854 8.56224 6.22254 7.84974 6.79641 6.80004C6.22345 6.02188 5.88305 5.06292 5.88305 4.02462C5.88305 3.55357 5.95441 3.09894 6.08414 2.66962C5.48565 2.132 4.69609 1.80141 3.82787 1.80141C1.96102 1.80141 0.447571 3.31509 0.447571 5.18194C0.447571 7.04856 1.96102 8.56224 3.82787 8.56224Z" fill="#127628"/>
<path d="M17.3381 8.83949C16.355 8.83949 15.4617 9.21341 14.7834 9.82285C15.4314 10.6933 15.8158 11.7702 15.8158 12.9364L15.8114 13.0116C15.7567 13.4995 15.4779 15.7643 14.7882 18.0335C15.3791 19.5075 16.2068 20.71 17.3381 20.71C20.2654 20.71 21.166 12.6671 21.166 12.6671C21.166 10.5536 19.4521 8.83949 17.3381 8.83949Z" fill="#127628"/>
<path d="M14.3698 6.79983C14.9437 7.84953 16.0572 8.56203 17.3384 8.56203C19.2052 8.56203 20.7187 7.04835 20.7187 5.18172C20.7187 3.31487 19.205 1.80119 17.3384 1.80119C16.4699 1.80119 15.6806 2.13156 15.0821 2.66941C15.2116 3.09896 15.2834 3.55336 15.2834 4.0244C15.2829 5.06271 14.9425 6.02167 14.3698 6.79983Z" fill="#127628"/>
<path d="M10.583 8.37915C8.06611 8.37915 6.02576 10.4195 6.02576 12.9364C6.02576 12.9364 7.09826 22.5116 10.583 22.5116C14.0677 22.5116 15.14 12.9364 15.14 12.9364C15.14 10.4195 13.0999 8.37915 10.583 8.37915Z" fill="#127628"/>
<path d="M10.583 8.04879C12.8056 8.04879 14.6074 6.24701 14.6074 4.0244C14.6074 1.80178 12.8056 0 10.583 0C8.36038 0 6.55859 1.80178 6.55859 4.0244C6.55859 6.24701 8.36038 8.04879 10.583 8.04879Z" fill="#127628"/>
</svg>
